<svg width="328" height="50" viewBox="0 0 328 50" fill="none" xmlns="http://www.w3.org/2000/svg">
<g clip-path="url(#clip0_158_2514)">
<path d="M60.5246 4.7C62.3579 4.7 63.2746 5.45 63.2746 6.95C63.2746 7.41666 63.1746 8 62.9746 8.7L61.7746 12.75C61.4079 13.9833 60.9579 14.85 60.4246 15.35C59.8913 15.85 59.1246 16.1 58.1246 16.1C57.2913 16.1 56.6413 15.8833 56.1746 15.45C55.7413 15.0167 55.3246 14.3333 54.9246 13.4L54.0746 11.35C53.8079 10.7167 53.5246 10.2833 53.2246 10.05C52.9246 9.81666 52.4579 9.7 51.8246 9.7H50.6746L44.3246 32.05C44.2246 32.4833 44.1746 32.8667 44.1746 33.2C44.1746 33.6 44.2246 33.9333 44.3246 34.2C44.4579 34.4667 44.6413 34.75 44.8746 35.05C45.1746 35.5167 45.3246 35.9 45.3246 36.2C45.3246 36.2667 45.2913 36.4333 45.2246 36.7C45.0579 37.1333 44.7246 37.45 44.2246 37.65C43.7579 37.85 43.0746 37.95 42.1746 37.95H30.4246C29.7246 37.95 29.1746 37.8333 28.7746 37.6C28.4079 37.3667 28.2246 37.0333 28.2246 36.6C28.2246 36.4 28.2746 36.2 28.3746 36C28.5079 35.7 28.6579 35.4833 28.8246 35.35C29.0246 35.1833 29.3079 34.9833 29.6746 34.75C30.1746 34.45 30.5913 34.1167 30.9246 33.75C31.2579 33.3833 31.5413 32.8167 31.7746 32.05L38.0746 9.7H36.9246C36.1913 9.7 35.5913 9.81666 35.1246 10.05C34.6579 10.2833 34.1579 10.7167 33.6246 11.35L31.9746 13.4C31.2079 14.3 30.4579 14.9833 29.7246 15.45C29.0246 15.8833 28.2579 16.1 27.4246 16.1C26.6579 16.1 26.0579 15.9 25.6246 15.5C25.1913 15.1 24.9746 14.55 24.9746 13.85C24.9746 13.5167 25.0246 13.15 25.1246 12.75L26.4246 8.2C26.6913 7.26667 26.9913 6.56667 27.3246 6.1C27.6579 5.6 28.1246 5.25 28.7246 5.05C29.3579 4.81667 30.2413 4.7 31.3746 4.7H60.5246ZM94.0641 31.1C93.9974 31.2333 93.9641 31.4333 93.9641 31.7C93.9641 31.9333 94.0141 32.1167 94.1141 32.25C94.2474 32.3833 94.4141 32.45 94.6141 32.45C95.0141 32.45 95.3474 32.2833 95.6141 31.95C95.9141 31.5833 96.1141 31.4 96.2141 31.4C96.3807 31.4 96.5141 31.5167 96.6141 31.75C96.7141 31.95 96.7641 32.2 96.7641 32.5C96.7974 33.4667 96.4807 34.4167 95.8141 35.35C95.1474 36.25 94.1641 37 92.8641 37.6C91.5974 38.1667 90.0641 38.45 88.2641 38.45C86.0641 38.45 84.3141 37.95 83.0141 36.95C81.7141 35.9167 81.0474 34.55 81.0141 32.85C81.0141 31.6167 81.3141 30.2333 81.9141 28.7L84.6641 21.5C84.8307 21.0667 84.9141 20.7167 84.9141 20.45C84.9141 20.0167 84.7641 19.6833 84.4641 19.45C84.1974 19.1833 83.8641 19.05 83.4641 19.05C82.8307 19.05 82.1807 19.35 81.5141 19.95C80.8807 20.5167 80.3641 21.45 79.9641 22.75V22.65L76.8141 32.8C76.7141 33.2 76.6641 33.55 76.6641 33.85C76.6641 34.2833 76.7474 34.6333 76.9141 34.9C77.0807 35.1333 77.3141 35.3667 77.6141 35.6C77.8474 35.8333 78.0141 36.0333 78.1141 36.2C78.2141 36.3333 78.2307 36.5167 78.1641 36.75C77.9974 37.1833 77.6641 37.5 77.1641 37.7C76.6641 37.9 75.8974 38 74.8641 38H63.4641C62.5974 38 61.9641 37.8667 61.5641 37.6C61.1641 37.3 61.0307 36.9167 61.1641 36.45C61.2974 36.05 61.6474 35.7 62.2141 35.4C62.7141 35.1333 63.1307 34.8167 63.4641 34.45C63.7974 34.0833 64.0807 33.5 64.3141 32.7L71.9141 7.75C72.0141 7.45 72.0641 7.2 72.0641 7C72.0641 6.63333 71.9641 6.33333 71.7641 6.1C71.5974 5.86667 71.3641 5.63333 71.0641 5.4C70.7307 5.13333 70.4807 4.9 70.3141 4.7C70.1807 4.5 70.1641 4.23333 70.2641 3.9C70.4641 3.13333 71.5141 2.46666 73.4141 1.9C75.3141 1.33333 77.2974 1.05 79.3641 1.05C81.2974 1.05 82.7141 1.41667 83.6141 2.15C84.5474 2.88333 85.0141 3.88333 85.0141 5.15C85.0141 5.88333 84.8974 6.6 84.6641 7.3L81.9641 16.1C83.2641 14.4 84.6307 13.2167 86.0641 12.55C87.5307 11.8833 89.1141 11.55 90.8141 11.55C92.8474 11.55 94.4807 12.1667 95.7141 13.4C96.9807 14.6333 97.6141 16.2333 97.6141 18.2C97.6141 19.2333 97.4474 20.25 97.1141 21.25L94.0641 31.1ZM121.762 11.55C125.595 11.55 128.662 12.2667 130.962 13.7C133.262 15.1 134.412 17.25 134.412 20.15C134.412 21.25 134.212 22.5 133.812 23.9L131.762 30.8C131.729 30.9333 131.712 31.1 131.712 31.3C131.712 31.8333 131.929 32.1 132.362 32.1C132.762 32.1 133.095 31.9333 133.362 31.6C133.662 31.2333 133.862 31.05 133.962 31.05C134.129 31.05 134.262 31.1667 134.362 31.4C134.495 31.6333 134.562 31.9 134.562 32.2C134.595 33.1 134.245 34.0167 133.512 34.95C132.812 35.8833 131.862 36.65 130.662 37.25C129.462 37.85 128.145 38.15 126.712 38.15C124.979 38.15 123.495 37.8333 122.262 37.2C121.029 36.5667 120.179 35.6333 119.712 34.4C118.712 35.6 117.529 36.5333 116.162 37.2C114.795 37.8333 113.329 38.15 111.762 38.15C109.995 38.15 108.512 37.8167 107.312 37.15C106.112 36.45 105.212 35.5667 104.612 34.5C104.045 33.4 103.762 32.25 103.762 31.05C103.762 30.5167 103.812 30 103.912 29.5C104.445 27.2 105.595 25.4667 107.362 24.3C109.162 23.1333 111.295 22.55 113.762 22.55C116.529 22.55 119.245 22.9833 121.912 23.85L123.162 20.55C123.595 19.15 123.812 18.0667 123.812 17.3C123.779 16.5 123.512 15.9 123.012 15.5C122.512 15.1 121.745 14.9 120.712 14.9C120.912 15.4333 121.012 15.9833 121.012 16.55C121.012 17.7833 120.545 18.85 119.612 19.75C118.679 20.65 117.345 21.1 115.612 21.1C113.979 21.1 112.695 20.75 111.762 20.05C110.862 19.3167 110.412 18.4167 110.412 17.35C110.412 15.6833 111.345 14.3 113.212 13.2C115.079 12.1 117.929 11.55 121.762 11.55ZM118.962 26.7C118.029 26.7 117.262 27.0667 116.662 27.8C116.095 28.5 115.812 29.2667 115.812 30.1C115.812 30.6333 115.929 31.0667 116.162 31.4C116.429 31.7333 116.795 31.9 117.262 31.9C117.695 31.9 118.162 31.7333 118.662 31.4C119.195 31.0333 119.579 30.5 119.812 29.8L120.862 26.85C120.295 26.75 119.662 26.7 118.962 26.7ZM172.577 31.1C172.51 31.2333 172.477 31.4333 172.477 31.7C172.477 31.9333 172.527 32.1167 172.627 32.25C172.76 32.3833 172.927 32.45 173.127 32.45C173.527 32.45 173.86 32.2833 174.127 31.95C174.427 31.5833 174.627 31.4 174.727 31.4C174.894 31.4 175.027 31.5167 175.127 31.75C175.227 31.95 175.277 32.2 175.277 32.5C175.31 33.4667 174.994 34.4167 174.327 35.35C173.66 36.25 172.677 37 171.377 37.6C170.11 38.1667 168.577 38.45 166.777 38.45C164.577 38.45 162.827 37.95 161.527 36.95C160.227 35.9167 159.56 34.55 159.527 32.85C159.527 31.6167 159.827 30.2333 160.427 28.7L163.177 21.5C163.344 21.0667 163.427 20.7167 163.427 20.45C163.427 20.0167 163.277 19.6833 162.977 19.45C162.71 19.1833 162.377 19.05 161.977 19.05C161.244 19.05 160.544 19.4 159.877 20.1C159.21 20.7667 158.727 21.6 158.427 22.6L155.327 32.8C155.194 33.1667 155.127 33.5167 155.127 33.85C155.127 34.25 155.21 34.5833 155.377 34.85C155.544 35.0833 155.777 35.3333 156.077 35.6C156.31 35.8 156.477 35.9833 156.577 36.15C156.677 36.3167 156.694 36.5167 156.627 36.75C156.494 37.1833 156.177 37.5 155.677 37.7C155.177 37.9 154.394 38 153.327 38H141.927C141.06 38 140.444 37.8667 140.077 37.6C139.677 37.3 139.527 36.9167 139.627 36.45C139.76 36.05 140.11 35.7 140.677 35.4C141.177 35.1333 141.594 34.8167 141.927 34.45C142.26 34.0833 142.544 33.5 142.777 32.7L147.227 18.25C147.294 18.0833 147.327 17.85 147.327 17.55C147.327 17.1833 147.244 16.9 147.077 16.7C146.944 16.5 146.71 16.25 146.377 15.95C146.044 15.6833 145.81 15.45 145.677 15.25C145.544 15.05 145.527 14.7833 145.627 14.45C145.827 13.6833 146.877 13.0167 148.777 12.45C150.677 11.85 152.66 11.55 154.727 11.55C156.394 11.55 157.71 12.0167 158.677 12.95C159.644 13.85 160.077 15.1167 159.977 16.75C161.344 14.7833 162.794 13.4333 164.327 12.7C165.86 11.9333 167.527 11.55 169.327 11.55C171.36 11.55 172.994 12.1667 174.227 13.4C175.494 14.6333 176.127 16.2333 176.127 18.2C176.127 19.2333 175.96 20.25 175.627 21.25L172.577 31.1ZM212.068 11.55C213.968 11.55 215.485 12.0833 216.618 13.15C217.785 14.1833 218.368 15.45 218.368 16.95C218.368 18.55 217.885 19.8 216.918 20.7C215.951 21.6 214.685 22.05 213.118 22.05C211.718 22.05 210.635 21.7 209.868 21C209.101 20.2667 208.735 19.45 208.768 18.55C208.435 18.4833 208.151 18.6167 207.918 18.95C207.685 19.2833 207.435 19.9333 207.168 20.9C207.001 21.5333 206.685 22.1167 206.218 22.65C208.485 22.8167 210.168 23.3333 211.268 24.2C212.368 25.0667 212.918 26.1833 212.918 27.55C212.918 28.2167 212.801 28.8833 212.568 29.55L212.168 31.1C212.101 31.2667 212.068 31.4833 212.068 31.75C212.068 32.2167 212.285 32.45 212.718 32.45C213.118 32.45 213.451 32.2833 213.718 31.95C214.018 31.5833 214.218 31.4 214.318 31.4C214.485 31.4 214.618 31.5167 214.718 31.75C214.818 31.95 214.868 32.2 214.868 32.5C214.901 33.4667 214.601 34.4167 213.968 35.35C213.368 36.25 212.435 37 211.168 37.6C209.935 38.1667 208.435 38.45 206.668 38.45C204.535 38.45 202.751 37.9167 201.318 36.85C199.918 35.7833 199.218 34.3833 199.218 32.65C199.218 32.0167 199.351 31.3 199.618 30.5L200.568 28C200.735 27.4 200.818 26.9667 200.818 26.7C200.818 26.2667 200.668 25.95 200.368 25.75C200.101 25.55 199.668 25.45 199.068 25.45H198.068L195.818 32.8C195.718 33.2 195.668 33.55 195.668 33.85C195.668 34.2833 195.751 34.6333 195.918 34.9C196.085 35.1333 196.318 35.3667 196.618 35.6C196.851 35.8333 197.018 36.0333 197.118 36.2C197.218 36.3333 197.235 36.5167 197.168 36.75C197.001 37.1833 196.668 37.5 196.168 37.7C195.668 37.9 194.901 38 193.868 38H182.468C181.601 38 180.968 37.8667 180.568 37.6C180.168 37.3 180.035 36.9167 180.168 36.45C180.301 36.05 180.651 35.7 181.218 35.4C181.718 35.1333 182.135 34.8167 182.468 34.45C182.801 34.0833 183.085 33.5 183.318 32.7L190.918 7.75C191.018 7.45 191.068 7.2 191.068 7C191.068 6.63333 190.968 6.33333 190.768 6.1C190.601 5.86667 190.368 5.63333 190.068 5.4C189.735 5.13333 189.485 4.9 189.318 4.7C189.185 4.5 189.168 4.23333 189.268 3.9C189.468 3.13333 190.518 2.46666 192.418 1.9C194.318 1.33333 196.301 1.05 198.368 1.05C200.301 1.05 201.718 1.41667 202.618 2.15C203.518 2.85 203.968 3.83333 203.968 5.1C203.968 5.86666 203.851 6.6 203.618 7.3L199.268 21.5H200.918C201.585 21.5 202.118 21.3 202.518 20.9C202.951 20.5 203.285 19.9167 203.518 19.15C204.351 16.6833 205.435 14.8 206.768 13.5C208.101 12.2 209.868 11.55 212.068 11.55ZM243.639 20.4C243.872 19.4333 244.355 18.6833 245.089 18.15C245.822 17.6167 246.722 17.35 247.789 17.35H259.439C261.272 17.35 262.189 18.0667 262.189 19.5C262.189 19.8667 262.155 20.1667 262.089 20.4C261.455 22.4333 260.055 23.45 257.889 23.45H246.239C245.339 23.45 244.655 23.2833 244.189 22.95C243.722 22.5833 243.489 22.0667 243.489 21.4C243.489 21.0667 243.539 20.7333 243.639 20.4ZM307.805 21.2C306.572 25.8667 304.472 29.65 301.505 32.55C298.539 35.4167 295.039 37.2667 291.005 38.1C292.305 39.1 293.755 39.6 295.355 39.6C296.189 39.6 296.922 39.4333 297.555 39.1C298.222 38.8 298.872 38.4 299.505 37.9C299.572 37.8333 299.755 37.7 300.055 37.5C300.355 37.2667 300.622 37.15 300.855 37.15C301.155 37.15 301.422 37.4833 301.655 38.15C301.922 38.85 302.055 39.7 302.055 40.7C302.055 41.7 301.922 42.65 301.655 43.55C301.155 45.2833 300.255 46.6333 298.955 47.6C297.689 48.5667 296.089 49.05 294.155 49.05C290.022 49.05 287.122 46.5333 285.455 41.5L284.455 38.55C280.822 38.2833 277.972 37.1667 275.905 35.2C273.872 33.2 272.855 30.4667 272.855 27C272.855 25.3 273.139 23.3667 273.705 21.2C274.672 17.5 276.189 14.3667 278.255 11.8C280.355 9.2 282.839 7.25 285.705 5.95C288.605 4.61666 291.772 3.95 295.205 3.95C299.405 3.95 302.689 4.95 305.055 6.95C307.422 8.91666 308.605 11.7667 308.605 15.5C308.605 17.2667 308.339 19.1667 307.805 21.2ZM294.605 21.55C295.905 16.95 296.555 13.7167 296.555 11.85C296.555 10.7833 296.372 10.0167 296.005 9.55C295.639 9.08333 295.072 8.85 294.305 8.85C293.305 8.85 292.405 9.25 291.605 10.05C290.805 10.85 290.005 12.1667 289.205 14C288.439 15.8 287.605 18.3167 286.705 21.55C285.372 26.2167 284.705 29.4333 284.705 31.2C284.705 32.2333 284.889 32.9833 285.255 33.45C285.622 33.9167 286.205 34.15 287.005 34.15C288.005 34.15 288.905 33.75 289.705 32.95C290.505 32.1167 291.289 30.8 292.055 29C292.822 27.2 293.672 24.7167 294.605 21.55Z" fill="#523000"/>
</g>
<defs>
<clipPath id="clip0_158_2514">
<rect width="328" height="50" fill="white"/>
</clipPath>
</defs>
</svg>
