<svg width="108" height="137" viewBox="0 0 108 137" fill="none" xmlns="http://www.w3.org/2000/svg">
<path d="M105.345 52.6C101.645 66.6 95.3451 77.95 86.4451 86.65C77.5451 95.25 67.0451 100.8 54.9451 103.3C58.8451 106.3 63.1951 107.8 67.9951 107.8C70.4951 107.8 72.6951 107.3 74.5951 106.3C76.5951 105.4 78.5451 104.2 80.4451 102.7C80.6451 102.5 81.1951 102.1 82.0951 101.5C82.9951 100.8 83.7951 100.45 84.4951 100.45C85.3951 100.45 86.1951 101.45 86.8951 103.45C87.6951 105.55 88.0951 108.1 88.0951 111.1C88.0951 114.1 87.6951 116.95 86.8951 119.65C85.3951 124.85 82.6951 128.9 78.7951 131.8C74.9951 134.7 70.1951 136.15 64.3951 136.15C51.9951 136.15 43.2951 128.6 38.2951 113.5L35.2951 104.65C24.3951 103.85 15.8451 100.5 9.64512 94.6C3.54512 88.6 0.495118 80.4 0.495118 70C0.495118 64.9 1.34512 59.1 3.04512 52.6C5.94512 41.5 10.4951 32.1 16.6951 24.4C22.9951 16.6 30.4451 10.75 39.0451 6.85C47.7451 2.84999 57.2451 0.849992 67.5451 0.849992C80.1451 0.849992 89.9951 3.84999 97.0951 9.84999C104.195 15.75 107.745 24.3 107.745 35.5C107.745 40.8 106.945 46.5 105.345 52.6ZM65.7451 53.65C69.6451 39.85 71.5951 30.15 71.5951 24.55C71.5951 21.35 71.0451 19.05 69.9451 17.65C68.8451 16.25 67.1451 15.55 64.8451 15.55C61.8451 15.55 59.1451 16.75 56.7451 19.15C54.3451 21.55 51.9451 25.5 49.5451 31C47.2451 36.4 44.7451 43.95 42.0451 53.65C38.0451 67.65 36.0451 77.3 36.0451 82.6C36.0451 85.7 36.5951 87.95 37.6951 89.35C38.7951 90.75 40.5451 91.45 42.9451 91.45C45.9451 91.45 48.6451 90.25 51.0451 87.85C53.4451 85.35 55.7951 81.4 58.0951 76C60.3951 70.6 62.9451 63.15 65.7451 53.65Z" fill="white"/>
</svg>
